# xmcd
#
# Track frame offsets:
# 150
# 16840
# 34480
# 51376
# 59686
# 73137
# 90307
# 111626
# 127889
# 145466
# 160020
# 171426
# 188849
# 206013
# 217493
# 231215
# 243436
# 258778
# 276459
#
# Disc length: 3733 seconds
#
#
# Revision: 0
# Processed by: cddbd v1.5.2PL0 Copyright (c) Steve Scherf et al.
# Submitted via: FreeRIP 2.951 
#
DISCID=2f0e9313
DTITLE=Visionaries - Sophomore Jinx
DYEAR=1900
DGENRE=Hip-Hop
TTITLE0=Never The Same
TTITLE1=Top Choice
TTITLE2=Making Things Right(LRA)
TTITLE3=Quattroduction
TTITLE4=Stand Still
TTITLE5=Reach
TTITLE6=DJs MCs
TTITLE7=Somersault Suicide
TTITLE8=La Fresh
TTITLE9=Tipping The Scales
TTITLE10=Peace Mic
TTITLE11=Self Sufficient
TTITLE12=Come One Come All
TTITLE13=Spiritual Warfare
TTITLE14=Everybodys Lying
TTITLE15=Thicken Up
TTITLE16=Who
TTITLE17=Honorable Mention
TTITLE18=Together Or Separate
EXTD=
EXTT0=
EXTT1=
EXTT2=
EXTT3=
EXTT4=
EXTT5=
EXTT6=
EXTT7=
EXTT8=
EXTT9=
EXTT10=
EXTT11=
EXTT12=
EXTT13=
EXTT14=
EXTT15=
EXTT16=
EXTT17=
EXTT18=
PLAYORDER=
